<?xml version="1.0" standalone="no"?><!DOCTYPE svg PUBLIC "-//W3C//DTD SVG 1.1//EN" "http://www.w3.org/Graphics/SVG/1.1/DTD/svg11.dtd"><svg t="1525963742875" class="icon" style="" viewBox="0 0 1024 1024" version="1.1" xmlns="http://www.w3.org/2000/svg" p-id="1768" xmlns:xlink="http://www.w3.org/1999/xlink" width="128" height="128"><defs><style type="text/css"></style></defs><path d="M641.422874 591.093423c-7.185993 17.976982-10.778989 32.354968-10.77899 43.138958 0 14.378986 7.186993 28.764972 21.566979 28.764972 61.11794 0 129.420874-111.450891 129.420874-201.323804 0-133.02487-118.632884-222.900782-251.655755-222.900782-161.784842-7.191993-287.607719 129.422874-287.607719 276.820729 0 154.591849 125.822877 276.82673 291.201716 276.82673 89.878912 0 183.350821-46.735954 230.087775-100.666902h71.90493C774.444744 792.419226 655.80386 853.536166 526.383986 853.536166c-197.732807 0-355.920652-147.398856-355.920652-345.131662 0-186.944817 161.775842-337.94067 355.920652-337.94067 179.749824 0 327.152681 118.636884 327.15268 280.419726 0 158.186846-136.615867 262.441744-215.706789 262.441743-43.142958 0-68.302933-21.572979-71.90493-61.11994h-3.592996c-28.761972 28.767972-57.520944 61.11994-115.040888 61.11994-82.691919 0-136.614867-64.714937-136.614866-143.805859 3.591996-122.233881 89.878912-255.253751 222.892782-255.253751 43.142958 0 89.878912 21.569979 107.852895 71.90393h3.597996l17.977983-57.522944h61.11394l-82.688919 262.446744zM533.569979 382.574626c-82.684919 0-143.80586 104.255898-143.80586 183.351821 0 53.926947 32.358968 82.684919 79.090923 82.68492 71.90593 0 136.619867-111.445891 136.619867-186.937818-3.597996-46.742954-25.168975-79.098923-71.90493-79.098923z" fill="#1296db" p-id="1769"></path></svg>