<?xml version="1.0" standalone="no"?><!DOCTYPE svg PUBLIC "-//W3C//DTD SVG 1.1//EN" "http://www.w3.org/Graphics/SVG/1.1/DTD/svg11.dtd"><svg t="1525275141179" class="icon" style="" viewBox="0 0 1024 1024" version="1.1" xmlns="http://www.w3.org/2000/svg" p-id="5093" xmlns:xlink="http://www.w3.org/1999/xlink" width="200" height="200"><defs><style type="text/css"></style></defs><path d="M511.998977 145.076166c-202.64635 0-366.92281 164.276461-366.92281 366.92281 0 202.647373 164.276461 366.923834 366.92281 366.923834 202.647373 0 366.923834-164.276461 366.923834-366.923834C878.92281 309.352627 714.64635 145.076166 511.998977 145.076166L511.998977 145.076166zM638.505205 811.508421c-40.044018 16.940834-82.607416 25.526373-126.506229 25.526373-43.897789 0-86.461187-8.585539-126.506229-25.526373-38.70144-16.364713-73.466222-39.808658-103.329367-69.672826-0.048095-0.048095-0.096191-0.096191-0.140193-0.148379C321.568856 648.614447 412.051637 588.639494 513.39886 588.639494c99.567693 0 190.93461 60.303434 230.519164 151.065578-0.695848 0.707105-1.379417 1.426489-2.082428 2.130524C711.971427 771.699764 677.207669 795.143709 638.505205 811.508421L638.505205 811.508421zM513.394766 531.266809c-57.741076 0-104.712877-46.976918-104.712877-104.71697 0-57.741076 46.971801-104.7139 104.712877-104.7139 57.740052 0 104.71697 46.972824 104.71697 104.7139C618.111736 484.289891 571.134819 531.266809 513.394766 531.266809L513.394766 531.266809zM773.694187 704.845123c-21.805632-42.028209-53.452399-78.135568-92.793406-105.565291-29.747511-20.733207-62.637596-35.563984-97.289814-44.069705 45.476751-24.919553 76.383668-73.246211 76.383668-128.660288 0-80.83812-65.762773-146.600893-146.599869-146.600893s-146.600893 65.762773-146.600893 146.600893c0 55.41817 30.906917 103.744829 76.391854 128.664382-33.744545 8.286734-65.831334 22.569018-94.947466 42.450834-41.043788 28.025287-73.973782 65.547879-96.270601 109.413945-15.884782-21.11797-29.107945-44.054355-39.477107-68.573795-16.940834-40.044018-25.526373-82.607416-25.526373-126.506229 0-43.897789 8.585539-86.461187 25.526373-126.506229 16.368806-38.70144 39.808658-73.466222 69.672826-103.329367 29.863145-29.864168 64.632019-53.308113 103.329367-69.676919 40.045041-16.936741 82.608439-25.52228 126.506229-25.52228 43.898813 0 86.462211 8.585539 126.506229 25.52228 38.702464 16.368806 73.466222 39.812751 103.33039 69.676919 29.867238 29.863145 53.308113 64.627926 69.676919 103.329367 16.936741 40.045041 25.526373 82.608439 25.526373 126.506229 0 43.898813-8.589632 86.462211-25.526373 126.506229C801.503557 662.166091 788.840142 684.346253 773.694187 704.845123L773.694187 704.845123zM773.694187 704.845123" p-id="5094" fill="#cfaa13"></path></svg>